# xmcd CD database file
# Copyright (C) 1995-1998 Ti Kan
#
# Track frame offsets:
#	150
#	14112
#	29032
#	42852
#	56127
#	67255
#	77635
#	88387
#	100215
#	113547
#	124030
#	135157
#	146435
#	156730
#	168680
#	181815
#	192560
#	203635
#	213325
#	223505
#	234335
#	245670
#	256210
#	267725
#	279362
#	290665
#	302482
#	314292
#	325695
#	334532
#	346527
#
# Disc length: 4759 seconds
#
# Revision: 1
# Processed by: cddbd v1.4PL0 Copyright (c) Steve Scherf et al.
# Submitted via: CDex 1.30Release
#
DISCID=d712951f
DTITLE=Hank Snow - The Singing Ranger Vol. 3 [CD07 of 12)
DYEAR=1992
DGENRE=Country
TTITLE0=Sonny Boy (Chet Atkins) 1964
TTITLE1=Indian Love Call (Chet Atkins) 1964
TTITLE2=Unchained Melody (Chet Atkins) 1964
TTITLE3=Beautiful Dreamer (Chet Atkins) 1964
TTITLE4=My Isle Of Golden Dreams (Chet Atkins) 1964
TTITLE5=Brahms Lullaby (Chet Atkins) 1964
TTITLE6=Blue Tango (Chet Atkins) 1964
TTITLE7=Dark Moon (Chet Atkins) 1964
TTITLE8=Vaya Con Dios (Chet Atkins) 1964
TTITLE9=In An Old Dutch Garden, By An Old Dutch Mill (Chet Atkins) 1964
TTITLE10=I Can't Stop Loving You (Chet Atkins) 1964
TTITLE11=The Convict And The Rose (Chet Atkins) 1964
TTITLE12=Limbo Rock (Chet Atkins) 1969
TTITLE13=Hold Me Tight (Chet Atkins) 1969
TTITLE14=Tammy (Chet Atkins) 1969
TTITLE15=Jamaica Farewell (Chet Atkins) 1969
TTITLE16=Everybody Does It In Hawaii (Chet Atkins) 1969
TTITLE17=I Saw The Light (Chet Atkins) 1969
TTITLE18=The Green Leaves Of Summer (Chet Atkins) 1969
TTITLE19=Difficult (Chet Atkins) 1969
TTITLE20=Wheels (Chet Atkins) 1969
TTITLE21=Tiptoeing (Chet Atkins) 1969
TTITLE22=The Waltz You Saved For Me 1966
TTITLE23=Lay My Head Beneath The Rose 1966
TTITLE24=Whispering Hope 1966
TTITLE25=Wabash Blues 1966
TTITLE26=Sentimental Journey 1966
TTITLE27=Am I Losing You? 1966
TTITLE28=I Get The Blues When It Rains 1966
TTITLE29=Sweet Marie 1966
TTITLE30=Birth Of The Blues 1966
EXTD=YEAR: 1992 ID3G:   2
EXTT0=
EXTT1=
EXTT2=
EXTT3=
EXTT4=
EXTT5=
EXTT6=
EXTT7=
EXTT8=
EXTT9=
EXTT10=
EXTT11=
EXTT12=
EXTT13=
EXTT14=
EXTT15=
EXTT16=
EXTT17=
EXTT18=
EXTT19=
EXTT20=
EXTT21=
EXTT22=
EXTT23=
EXTT24=
EXTT25=
EXTT26=
EXTT27=
EXTT28=
EXTT29=
EXTT30=
PLAYORDER=
